<?xml version="1.0" encoding="UTF-8" standalone="no"?>
<!-- Created with Inkscape (http://www.inkscape.org/) -->

<svg
   xmlns:dc="http://purl.org/dc/elements/1.1/"
   xmlns:cc="http://creativecommons.org/ns#"
   xmlns:rdf="http://www.w3.org/1999/02/22-rdf-syntax-ns#"
   xmlns:svg="http://www.w3.org/2000/svg"
   xmlns="http://www.w3.org/2000/svg"
   xmlns:sodipodi="http://sodipodi.sourceforge.net/DTD/sodipodi-0.dtd"
   xmlns:inkscape="http://www.inkscape.org/namespaces/inkscape"
   width="210mm"
   height="297mm"
   viewBox="0 0 210 297"
   version="1.1"
   id="svg832"
   inkscape:version="0.92.4 (5da689c313, 2019-01-14)"
   sodipodi:docname="elektra.svg">
  <defs
     id="defs826" />
  <sodipodi:namedview
     id="base"
     pagecolor="#ffffff"
     bordercolor="#666666"
     borderopacity="1.0"
     inkscape:pageopacity="0.0"
     inkscape:pageshadow="2"
     inkscape:zoom="7.9195959"
     inkscape:cx="410.10965"
     inkscape:cy="760.8725"
     inkscape:document-units="mm"
     inkscape:current-layer="layer1"
     showgrid="false"
     inkscape:window-width="1920"
     inkscape:window-height="1001"
     inkscape:window-x="-9"
     inkscape:window-y="202"
     inkscape:window-maximized="1" />
  <metadata
     id="metadata829">
    <rdf:RDF>
      <cc:Work
         rdf:about="">
        <dc:format>image/svg+xml</dc:format>
        <dc:type
           rdf:resource="http://purl.org/dc/dcmitype/StillImage" />
        <dc:title></dc:title>
      </cc:Work>
    </rdf:RDF>
  </metadata>
  <g
     inkscape:label="Capa 1"
     inkscape:groupmode="layer"
     id="layer1">
    <path
       d="m 118.37409,90.194738 2.89963,-0.527206 v -0.08787 c 0.0879,0.615074 0.17574,1.318016 0.17574,2.020957 0,0.878678 -0.0879,1.669487 -0.26361,2.372429 -0.96654,1.230148 -2.46029,1.93309 -4.12978,2.020958 -2.4603,0 -4.65699,-0.966545 -5.4478,-4.129783 -0.2636,-0.08787 -0.5272,-0.08787 -0.79081,-0.08787 -0.79081,0 -1.40588,0.263603 -2.02096,0.527207 -0.7908,0.527206 -1.40588,1.493751 -1.40588,2.548163 0,0.439339 0,0.79081 0.17574,1.142281 0.35147,0.966544 1.05441,1.669486 1.93309,2.020957 l -1.05442,2.987507 h -0.0879 c -1.31802,-0.52721 -2.54817,-1.318019 -3.60258,-2.284564 -0.2636,-0.615073 -0.35147,-1.230147 -0.35147,-1.933089 0,-0.966545 0.2636,-1.93309 0.70294,-2.723899 1.23015,-2.284561 3.16324,-3.690444 6.23861,-2.811767 0.61507,-0.702942 0.96654,-1.581619 1.05441,-2.636032 0,-1.493751 -1.05441,-2.723899 -2.46029,-2.899634 -0.26361,-0.08787 -0.52721,-0.08787 -0.79081,-0.08787 -0.70295,0 -1.40589,0.263603 -1.93309,0.702942 l -2.02096,-2.372428 c 1.14228,-0.966545 2.37243,-1.669487 3.95405,-2.108825 1.58161,0.35147 2.89963,1.318015 3.69044,2.636031 1.23015,2.196693 1.49375,4.569121 -0.79081,6.853681 0.35147,0.878678 0.96654,1.669487 1.75735,2.196693 0.43934,0.263604 0.96655,0.439339 1.49376,0.439339 0.96654,0 1.75735,-0.439339 2.28456,-1.14228 0.5272,-0.527206 0.87867,-1.318016 0.87867,-2.108825 0,-0.175736 -0.0879,-0.351471 -0.0879,-0.527207 z m -2.37243,0.439339 c 0,0.08787 3.42684,-3.426841 -0.26361,-5.623534 l -0.70294,-2.196693 1.84522,-1.054412 0.52721,1.493751 0.17574,0.702942 c 0.61507,0.351471 1.05441,0.790809 1.40588,1.405883 0.2636,0.439339 0.43934,0.966545 0.43934,1.581619 0,0.966544 -0.35147,1.757354 -0.96655,2.372428 -0.5272,0.702942 -1.40588,1.230148 -2.46029,1.318016 z m -7.11729,-2.460296 c 0,0 -4.65699,-1.230148 -4.74485,3.163237 l -1.49376,1.581619 -1.84522,-1.054412 1.05441,-1.230148 0.43934,-0.527206 c 0.0879,-0.702942 0.26361,-1.318016 0.61508,-1.93309 0.5272,-0.966545 1.58162,-1.581619 2.81177,-1.581619 0.2636,0 0.5272,0 0.7908,0.08787 0.96655,0.175735 1.84523,0.702941 2.37243,1.493751 z m 6.41435,10.016919 2.19669,0.702942 v 2.108828 l -1.58162,-0.35147 -0.70294,-0.17574 c -0.61508,0.2636 -1.23015,0.52721 -1.93309,0.52721 -1.40589,-0.0879 -2.63603,-1.054415 -3.07537,-2.460299 -0.17574,-0.439338 -0.2636,-0.878677 -0.2636,-1.318015 0,-0.615074 0.17573,-1.142281 0.35147,-1.581619 0,0 1.23014,4.656983 5.00846,2.548163 z"
       id="path2"
       inkscape:connector-curvature="0"
       style="fill:#e0251b;stroke-width:0.87867713"
       sodipodi:nodetypes="cccscccscscccccsccccsccccccscsccccccccscccccccccscccccccccscc" />
  </g>
</svg>
